<svg width="23" height="22" viewBox="0 0 23 22" fill="none" xmlns="http://www.w3.org/2000/svg">
<path fill-rule="evenodd" clip-rule="evenodd" d="M5.48957 17.5064C7.2515 19.0585 9.56425 20 12.0969 20C17.6197 20 22.0969 15.5228 22.0969 10C22.0969 4.47715 17.6197 0 12.0969 0C6.57405 0 2.0969 4.47715 2.0969 10C2.0969 12.3724 2.92305 14.5519 4.30336 16.2664L0 20.427L1.23437 21.6204L5.48957 17.5064ZM3.9969 10C3.9969 14.3229 7.53038 18 12.0969 18C16.6634 18 20.1969 14.3229 20.1969 10C20.1969 5.67715 16.6634 2 12.0969 2C7.53038 2 3.9969 5.67715 3.9969 10Z" fill="white"/>
</svg>
